<svg width="24" height="24" viewBox="0 0 24 24" fill="none" xmlns="http://www.w3.org/2000/svg">
	<defs>
		<linearGradient id="flameGradient" x1="0%" y1="0%" x2="0%" y2="100%">
			<stop offset="0%" style="stop-color:#FF6B35;stop-opacity:1" />
			<stop offset="50%" style="stop-color:#F7931E;stop-opacity:1" />
			<stop offset="100%" style="stop-color:#FFD700;stop-opacity:1" />
		</linearGradient>
	</defs>
	<!-- Main flame -->
	<path
		d="M12 22C12 22 8 18 8 14C8 10 12 6 12 6C12 6 16 10 16 14C16 18 12 22 12 22Z"
		fill="url(#flameGradient)"
	/>
	<!-- Inner flame highlight -->
	<path
		d="M12 20C12 20 10 17 10 14C10 11 12 8 12 8C12 8 14 11 14 14C14 17 12 20 12 20Z"
		fill="#FFFFFF"
		opacity="0.3"
	/>
	<!-- Sparkles around the flame -->
	<circle cx="6" cy="8" r="1" fill="#FFD700" />
	<circle cx="18" cy="8" r="1" fill="#FFD700" />
	<circle cx="8" cy="6" r="0.5" fill="#FFD700" />
	<circle cx="16" cy="6" r="0.5" fill="#FFD700" />
</svg>
